{"title":"The Automatic - Not Accepted Anywhere FLAC","uid":6006005,"size":326686033,"categoryP":"audio","categoryS":"flac","magnet":"?xt=urn:btih:2b8c05d940ff71c12d8a2823ef20f61c179960ee&amp;dn=The+Automatic+-+Not+Accepted+Anywhere+FLAC&amp;tr=udp%3A%2F%2Ftracker.openbittorrent.com%3A80&amp;tr=udp%3A%2F%2Fopen.demonii.com%3A1337&amp;tr=udp%3A%2F%2Ftracker.coppersurfer.tk%3A6969&amp;tr=udp%3A%2F%2Fexodus.desync.com%3A6969","seeders":0,"leechers":1,"uploader":"alecjw","files":7,"time":1291324157,"description":"FLAC Image with CUE and TOC\nRipped with cdrdao and encoded with the reference encoder -8\n\n\n\nTrack listing:\nNo. \tTitle \tLength\n1. \t&quot;That's What She Said&quot;   \t3:15\n2. \t&quot;Raoul&quot;   \t3:53\n3. \t&quot;You Shout You Shout You Shout You Shout&quot;   \t3:06\n4. \t&quot;Recover&quot;   \t2:52\n5. \t&quot;Monster&quot;   \t3:41\n6. \t&quot;Lost at Home&quot;   \t3:26\n7. \t&quot;Keep Your Eyes Peeled&quot;   \t3:01\n8. \t&quot;Seriously... I Hate You Guys&quot;   \t3:27\n9. \t&quot;On the Campaign Trail&quot;   \t3:01\n10. \t&quot;Team Drama&quot;   \t3:13\n11. \t&quot;By My Side&quot;   \t3:46\n12. \t&quot;Rats&quot;   \t3:39\n\n\n\n\nImage info:\n$ metaflac --list cdimage.flac\nMETADATA block #0\n  type: 0 (STREAMINFO)\n  is last: false\n  length: 34\n  minimum blocksize: 4096 samples\n  maximum blocksize: 4096 samples\n  minimum framesize: 14 bytes\n  maximum framesize: 14970 bytes\n  sample_rate: 44100 Hz\n  channels: 2\n  bits-per-sample: 16\n  total samples: 107010708\n  MD5 signature: 9ddfff82cdbebd6e120db5afd4e016b7\nMETADATA block #1\n  type: 3 (SEEKTABLE)\n  is last: false\n  length: 4374\n  seek points: 243\n    point 0: sample_number=0, stream_offset=0, frame_samples=4096\n    point 1: sample_number=438272, stream_offset=1201331, frame_samples=4096\n    point 2: sample_number=880640, stream_offset=2637151, frame_samples=4096\n    point 3: sample_number=1318912, stream_offset=4069999, frame_samples=4096\n           [TRUNCATED]\n    point 238: sample_number=104955904, stream_offset=320240610, frame_samples=4096\n    point 239: sample_number=105398272, stream_offset=321641786, frame_samples=4096\n    point 240: sample_number=105836544, stream_offset=323048122, frame_samples=4096\n    point 241: sample_number=106278912, stream_offset=324494481, frame_samples=4096\n    point 242: sample_number=106721280, stream_offset=325962797, frame_samples=4096\nMETADATA block #2\n  type: 4 (VORBIS_COMMENT)\n  is last: false\n  length: 40\n  vendor string: reference libFLAC 1.2.1 20070917\n  comments: 0\nMETADATA block #3\n  type: 1 (PADDING)\n  is last: true\n  length: 65536","torrent":{"xt":"urn:btih:2b8c05d940ff71c12d8a2823ef20f61c179960ee","amp;dn":"The+Automatic+-+Not+Accepted+Anywhere+FLAC","amp;tr":["udp%3A%2F%2Ftracker.openbittorrent.com%3A80","udp%3A%2F%2Fopen.demonii.com%3A1337","udp%3A%2F%2Ftracker.coppersurfer.tk%3A6969","udp%3A%2F%2Fexodus.desync.com%3A6969"],"infoHash":"2b8c05d940ff71c12d8a2823ef20f61c179960ee","infoHashBuffer":{"type":"Buffer","data":[43,140,5,217,64,255,113,193,45,138,40,35,239,32,246,28,23,153,96,238]},"announce":[],"urlList":[]}}